<svg width="80" height="80" viewBox="0 0 80 80" fill="none" xmlns="http://www.w3.org/2000/svg">
<g clip-path="url(#clip0_413_21)">
<path d="M63.05 42.05C60.4 41.655 58.01 40.935 55.78 39.93C66.3 30.55 77.9 22.25 78.05 22.15L78.55 21.8L78.85 21.25C79.735 19.415 80.255 17.265 80.255 14.99C80.255 10.485 78.22 6.45501 75.025 3.77001C72.41 1.36001 68.93 -0.109985 65.11 -0.109985C62.42 -0.109985 59.895 0.620014 57.73 1.89001L57.1 2.55501C49.21 13.46 41.19 23.05 32.56 32.05C23.38 40.24 13.21 48.025 2.47 55.01L0.499999 56.25V57.4C0.114999 58.97 -0.110001 60.775 -0.110001 62.63C-0.110001 67.48 1.41 71.98 4 75.675C6.535 78.325 10.185 80.025 14.225 80.025C14.5 80.025 14.77 80.015 15.035 80C15.165 80.01 15.36 80.015 15.555 80.015C19.06 80.015 22.14 78.215 23.925 75.49C25.15 73.95 34.25 62.45 43.95 51.95C45.29 54.27 46.33 56.965 46.92 59.825C47.08 61.07 47.15 62.305 47.15 63.56C47.15 67.675 46.36 71.61 44.925 75.215L53.35 65L60 70C59.795 64.13 58.785 58.57 57.08 53.32C55.945 51.24 54.37 49.095 52.505 47.25C54.535 48.98 56.86 50.465 59.365 51.62C64.065 53.31 69.31 54.48 74.745 54.98L70 48.65L80 40C75.85 41.365 71.075 42.155 66.115 42.155C65.035 42.155 63.965 42.12 62.905 42.045L63.05 42.05ZM60.8 5.90001C62.03 5.28501 63.48 4.93001 65.01 4.93001C67.54 4.93001 69.84 5.91001 71.555 7.51001C73.76 9.29001 75.16 11.995 75.16 15.03C75.16 16.24 74.935 17.4 74.53 18.47C72.1 20.005 62.8 27.055 53.8 35.005C53.525 32.4 52.29 30.13 50.46 28.515C49.06 27.32 47.245 26.595 45.265 26.595C44.925 26.595 44.59 26.615 44.26 26.655C52.1 17.8 59.15 8.20001 60.8 5.90001ZM13.5 59.05C13.865 58.795 14.32 58.64 14.81 58.64C14.88 58.64 14.945 58.645 15.01 58.65H15.35C16.245 58.91 17.02 59.36 17.655 59.955L13.3 63.55C12.895 62.725 12.66 61.76 12.66 60.735C12.66 60.475 12.675 60.22 12.705 59.97C12.84 59.585 13.125 59.25 13.495 59.055L13.5 59.05ZM20 72.5C19.125 74.03 17.505 75.04 15.645 75.04C15.415 75.04 15.195 75.025 14.975 74.995C14.745 75.025 14.445 75.035 14.14 75.035C11.565 75.035 9.235 73.99 7.55 72.295C5.725 69.595 4.635 66.265 4.635 62.685C4.635 61.43 4.77 60.21 5.02 59.035L8.55 56.75C8.08 57.45 7.73 58.27 7.555 59.155C7.52 59.535 7.505 59.925 7.505 60.325C7.505 63.535 8.515 66.51 10.23 68.945L12 71.145L20.5 64.145C20.83 65.19 21.02 66.395 21.02 67.645C21.02 69.4 20.645 71.07 19.97 72.57L20 72.5ZM24.3 60.25C22.575 57.25 19.855 54.985 16.6 53.88C16.245 53.82 15.95 53.8 15.65 53.8C15.35 53.8 15.055 53.82 14.765 53.85C14.535 53.815 14.235 53.795 13.925 53.795C13.615 53.795 13.315 53.815 13.015 53.85C20.46 48.76 26.845 43.835 32.955 38.59C34.945 38.945 37.015 39.84 38.61 41.255C40.095 42.82 41.01 44.95 41.01 47.3C41.01 47.46 41.005 47.615 41 47.77C35.3 53.9 29.75 60.45 26 65.3C25.73 63.405 25.115 61.705 24.215 60.185L24.3 60.25Z" fill="white"/>
</g>
<defs>
<clipPath id="clip0_413_21">
<rect width="80" height="80" fill="white"/>
</clipPath>
</defs>
</svg>
