<svg width="80" height="80" viewBox="0 0 80 80" fill="none" xmlns="http://www.w3.org/2000/svg">
<g clip-path="url(#clip0_413_26)">
<path d="M77.4775 55.11C77.4775 55.0675 77.49 55.0275 77.49 54.9825V2.87001C77.52 2.59751 77.51 2.31251 77.445 2.03001C77.2325 0.865011 76.215 -0.019989 74.99 -0.019989C74.53 -0.019989 74.1025 0.112511 73.7325 0.330011L27.025 12.49C26.1825 12.6975 25.56 13.3275 25.305 14.105C25.11 14.46 24.9925 14.86 24.9925 15.2925V60.0225C22.6125 58.43 19.57 57.4725 16.2525 57.4725C8.6325 57.4725 2.4525 62.52 2.4525 68.745C2.4525 74.97 8.6325 80.02 16.2525 80.02C23.875 80.02 30.05 74.9725 30.05 68.745C30.05 68.4275 30.0225 68.115 29.9925 67.8025V16.885L72.4925 5.82251V47.5225C70.115 45.93 67.07 44.9725 63.7525 44.9725C56.1325 44.9725 49.9525 50.0225 49.9525 56.2425C49.9525 62.4675 56.1325 67.515 63.7525 67.515C71.3725 67.515 77.55 62.4675 77.55 56.24C77.55 55.855 77.525 55.4775 77.48 55.1075L77.4775 55.11ZM16.305 74.995C11.105 74.995 7.48 71.7 7.48 68.745C7.48 65.79 11.105 62.5 16.305 62.5C20.9325 62.5 24.305 65.11 24.9925 67.765V67.795C24.9925 68.0475 25.0425 68.2875 25.1125 68.515C25.1175 68.5925 25.13 68.6675 25.13 68.7475C25.13 71.7 21.505 74.9975 16.3075 74.9975L16.305 74.995ZM63.725 62.4975C58.5725 62.4975 54.9775 59.2025 54.9775 56.2475C54.9775 53.2925 58.57 50.0025 63.7225 50.0025C68.875 50.0025 72.4675 53.295 72.4675 56.2475C72.4675 59.2 68.88 62.4975 63.725 62.4975Z" fill="white"/>
</g>
<defs>
<clipPath id="clip0_413_26">
<rect width="80" height="80" fill="white"/>
</clipPath>
</defs>
</svg>
