<svg width="80" height="80" viewBox="0 0 80 80" fill="none" xmlns="http://www.w3.org/2000/svg">
<path d="M74.38 8.79125L75.0525 7.7775L75.8325 8.5575L77.5 6.155L76.675 5.33L77.4975 4.09L75.9088 2.50375L74.67 3.32375L73.8475 2.5L71.4388 4.16375L72.2213 4.94625L71.2075 5.61625L70.9275 7.19875L70.2575 7.6425L68.5837 5.9675L69.2862 5.265L67.0025 4.215L65.8187 5.40125L66.8662 7.685L67.5687 6.9825L69.0375 8.4525L66.7325 9.98375L63.985 7.2375L62.9675 8.25375L66.1012 11.39L51.36 25.0788C48.825 22.705 45.0175 19.7 41.035 19.7C37.775 19.7 35.0425 21.6475 32.915 25.4825C32.54 26.1562 32.2875 26.9437 32.045 27.705C31.325 29.9525 30.7025 31.3875 28.4638 31.5862L9.85125 12.9737L3.73125 15.5L5.5275 17.2975L6.6125 18.3825L8.0525 19.8237V19.8225L26.4725 38.2425C26.1856 38.795 25.7738 39.2731 25.27 39.6388C23.5713 40.9113 22.145 41.5575 21.0288 41.5575C20.4275 41.5575 19.5438 41.3888 18.8325 39.9338C18.5 39.2575 17.8038 38.535 16.8475 38.535C14.7713 38.535 14.3288 41.6188 14.1838 42.6275C14.1013 43.1925 13.5938 44.5287 10.675 44.7237C7.125 44.9625 4.3925 46.9612 3.17375 50.2037C1.5275 54.5925 2.52875 62.045 10.2825 69.7975C15.245 74.7613 20.7288 77.4925 25.7238 77.495H25.7262C31.0163 77.495 34.8838 74.2588 35.3475 69.4437C35.6425 66.39 37.03 65.9575 37.4463 65.8975C39.07 65.6637 41.26 65.165 41.5213 63.5163C41.6625 62.62 41.1237 61.7288 40.1413 61.2475C39.2562 60.8125 38.7463 60.2762 38.5825 59.6037C38.3025 58.4525 38.9238 56.845 40.4563 54.785C40.8154 54.2895 41.2837 53.8832 41.825 53.5975L57.3625 69.135L60.1687 71.9413L62.6975 74.47L64.4938 76.2663L67.0225 70.1462L48.4912 51.6162C48.705 49.2137 50.3512 48.6838 52.3712 48.0375C53.1337 47.7938 53.9212 47.5425 54.5962 47.1663C57.9912 45.2825 59.9125 42.9112 60.3025 40.1162C60.9212 35.6975 57.54 31.4163 54.925 28.64L68.9212 13.565L69.4562 14.1L70.4275 12.6375L72.0687 14.2788L71.3675 14.9812L73.6513 16.0312L74.835 14.845L73.785 12.5612L73.0837 13.2625L71.2375 11.415L72.2437 9.9L76.0112 13.6688L77.0275 12.6513L73.3525 8.97375L74.38 8.79125ZM34.3863 28.4575C34.6038 27.78 34.8088 27.14 35.0638 26.6775C36.75 23.6387 38.7038 22.1613 41.035 22.1613C44.0913 22.1613 47.3025 24.6687 49.5525 26.7587L36.1138 39.24L30.4938 33.62C33.0288 32.63 33.8275 30.2025 34.3863 28.4575ZM41.7963 50.9875L37.7213 46.9125L38.7388 45.8937L38.825 45.98L39.5213 45.23L45.1512 50.86C44.6675 50.7674 44.1763 50.7189 43.6837 50.715C43.0448 50.7147 42.4091 50.8065 41.7963 50.9875ZM25.0363 56.825L35.0425 46.8175L35.965 47.74L25.9588 57.7462L25.0363 56.825ZM31.0263 43.3975C31.0763 43.2537 31.11 43.0812 31.1275 42.9025L31.8013 43.5762L31.2275 44.15C31.2525 44.0175 31.2473 43.8811 31.2125 43.7508C31.1777 43.6206 31.114 43.4998 31.0263 43.3975ZM32.2675 44.0425L33.1875 44.9625L23.1825 54.97L22.2625 54.05L32.2675 44.0425ZM35.4975 42.6538L34.48 43.6712L33.56 42.7513L34.5775 41.7325L35.4975 42.6538ZM38.275 45.43L37.2563 46.4475L36.335 45.5263L37.3525 44.5075L38.275 45.43ZM35.8688 45.0612L34.945 44.1375L35.9625 43.1187L36.8863 44.0425L35.8688 45.0612ZM33.6538 45.4287L34.5775 46.3525L24.5713 56.3588L23.6488 55.4375L33.6538 45.4287ZM36.43 48.2038L37.105 48.8787C36.9358 48.8937 36.7689 48.9281 36.6075 48.9813C36.505 48.8933 36.384 48.8295 36.2536 48.7947C36.1231 48.7599 35.9864 48.7548 35.8538 48.78L36.43 48.2038ZM34.0263 41.18L34.1113 41.2663L33.0938 42.2837L29.0863 38.2762C29.3867 37.1941 29.4409 36.0584 29.245 34.9525L34.7762 40.4837L34.0263 41.18ZM11.085 16.795L25.7775 31.4875L25.115 31.4412L26.1675 33.4062C26.215 33.4937 26.8263 34.6738 26.8963 36.0887L9.34375 18.535L11.085 16.795ZM5.47875 51.0738C6.355 48.7388 8.26 47.355 10.8413 47.1838C15.68 46.8575 16.4863 43.89 16.6175 42.985C16.71 42.3363 16.8175 41.8775 16.915 41.5588C18.12 43.5763 19.7938 44.0212 21.03 44.0212C23.5275 44.02 25.9488 42.2075 26.7675 41.5938C27.4025 41.1188 27.8788 40.5887 28.2588 40.035L29.5638 41.34C26.2987 41.1162 21.9063 49.3913 19.9938 47.48C19.5163 46.9988 19.6388 46.5787 19.77 46.3487C19.9061 46.3697 20.0453 46.3588 20.1765 46.317C20.3077 46.2751 20.4274 46.2034 20.5263 46.1075C20.6103 46.0236 20.677 45.924 20.7225 45.8143C20.7681 45.7047 20.7916 45.5871 20.7917 45.4684C20.7918 45.3496 20.7686 45.232 20.7232 45.1223C20.6779 45.0125 20.6114 44.9128 20.5275 44.8288C20.4436 44.7447 20.344 44.678 20.2343 44.6325C20.1247 44.5869 20.0071 44.5634 19.8884 44.5633C19.7696 44.5632 19.652 44.5864 19.5423 44.6318C19.4325 44.6771 19.3328 44.7436 19.2488 44.8275C19.1081 44.9719 19.0203 45.1595 18.9994 45.36C18.9785 45.5605 19.0259 45.7622 19.1338 45.9325C18.8725 46.315 18.3688 47.2937 19.275 48.1987C22.3775 51.3025 28.1775 40.6462 30.1525 42.6225C30.2813 42.75 30.2925 42.94 30.2738 43.1063C30.0633 43.1192 29.8645 43.2075 29.7138 43.355C29.5444 43.5245 29.4493 43.7542 29.4493 43.9938C29.4493 44.2333 29.5444 44.463 29.7138 44.6325C29.8175 44.734 29.9446 44.8085 30.0839 44.8495C30.2231 44.8905 30.3703 44.8966 30.5125 44.8675L21.7963 53.5863L20.9838 52.7738C20.9838 52.7738 19.4375 55.355 19.0863 56.2913C18.7688 57.13 18.7188 59.0025 18.2863 59.7862C17.2188 61.715 13.0213 65.4563 11.11 67.1063C5.02125 60.53 4.22375 54.415 5.47875 51.0738ZM38.4538 53.36C37.7238 54.3425 35.5 57.3313 36.1938 60.1875C36.4938 61.4263 37.2775 62.4275 38.525 63.1712C38.0569 63.306 37.5793 63.4051 37.0963 63.4675C36.23 63.5937 33.3675 64.3762 32.9 69.2125C32.5538 72.8087 29.8038 75.0413 25.7262 75.0413C23.3363 75.0413 18.5825 74.21 12.9 68.9062C14.5488 66.9962 18.2925 62.7913 20.2213 61.725C21.0063 61.29 22.88 61.24 23.7175 60.9225C24.655 60.5725 27.235 59.025 27.235 59.025L26.4225 58.2125L35.14 49.4938C35.1111 49.6358 35.1174 49.7827 35.1583 49.9217C35.1993 50.0607 35.2737 50.1876 35.375 50.2913C35.4589 50.3756 35.5586 50.4425 35.6684 50.4882C35.7783 50.5339 35.896 50.5574 36.015 50.5574C36.134 50.5574 36.2517 50.5339 36.3616 50.4882C36.4714 50.4425 36.5711 50.3756 36.655 50.2913C36.8013 50.1414 36.8887 49.944 36.9013 49.735C37.065 49.7125 37.255 49.7275 37.3825 49.8525C39.3613 51.8288 28.7063 57.6338 31.8088 60.7388C32.715 61.6437 33.6938 61.1387 34.075 60.8775C34.2449 60.9858 34.4467 61.0331 34.6471 61.0115C34.8475 60.9899 35.0345 60.9008 35.1775 60.7587C35.2619 60.6753 35.3289 60.5759 35.3746 60.4664C35.4203 60.3568 35.4439 60.2393 35.4439 60.1206C35.4439 60.0019 35.4203 59.8844 35.3746 59.7749C35.3289 59.6653 35.2619 59.566 35.1775 59.4825C35.0938 59.3984 34.9942 59.3316 34.8846 59.2861C34.775 59.2405 34.6575 59.2171 34.5388 59.2171C34.42 59.2171 34.3025 59.2405 34.1929 59.2861C34.0833 59.3316 33.9837 59.3984 33.9 59.4825C33.8041 59.5811 33.7324 59.7006 33.6906 59.8316C33.6487 59.9626 33.6378 60.1016 33.6588 60.2375C33.4275 60.3725 33.0075 60.4975 32.53 60.0163C30.6188 58.1038 38.8938 53.71 38.6675 50.4425L40.0425 51.8175C39.4318 52.2409 38.895 52.762 38.4538 53.36ZM43.9987 53.1913C44.9285 53.2614 45.8366 53.5069 46.675 53.915L48.6475 54.9875L48.5988 54.3075L63.2038 68.9113L61.4612 70.6525L58.6537 67.845L43.9987 53.1913ZM57.8687 39.775C57.59 41.7637 56.0875 43.5263 53.4025 45.015C52.94 45.2725 52.3 45.4775 51.6213 45.695C49.8613 46.2588 47.445 47.0537 46.4612 49.585L40.765 43.8887L53.2475 30.4463C55.5337 32.8925 58.3325 36.4675 57.8687 39.775Z" fill="white"/>
</svg>
